o HalfSphere
v 0.000000 -0.017317 -0.000000
v 0.000000 0.000000 -1.000000
v 0.000000 -0.382683 -0.923880
v 0.000000 -0.923880 -0.382683
v 0.382683 0.000000 -0.923880
v 0.353553 -0.382683 -0.853553
v 0.270598 -0.707107 -0.653281
v 0.146447 -0.923880 -0.353553
v 0.707107 0.000000 -0.707107
v 0.653282 -0.382683 -0.653281
v 0.500000 -0.707107 -0.500000
v 0.270598 -0.923880 -0.270598
v 0.923880 0.000000 -0.382683
v 0.853553 -0.382683 -0.353553
v 0.653281 -0.707107 -0.270598
v 0.353553 -0.923880 -0.146447
v 1.000000 0.000000 0.000000
v 0.923880 -0.382683 0.000000
v 0.707107 -0.707107 0.000000
v 0.382683 -0.923880 0.000000
v 0.923879 0.000000 0.382684
v 0.853553 -0.382683 0.353554
v 0.653281 -0.707107 0.270598
v 0.353553 -0.923880 0.146447
v 0.707107 0.000000 0.707107
v 0.653281 -0.382683 0.653282
v 0.500000 -0.707107 0.500000
v 0.270598 -0.923880 0.270598
v 0.382683 0.000000 0.923880
v 0.353553 -0.382683 0.853553
v 0.270598 -0.707107 0.653281
v 0.146447 -0.923880 0.353553
v -0.000000 0.000000 1.000000
v -0.000000 -0.382683 0.923879
v -0.000000 -0.707107 0.707107
v -0.000000 -0.923880 0.382683
v 0.000000 -1.000000 0.000000
v -0.382684 0.000000 0.923879
v -0.353554 -0.382683 0.853553
v -0.270598 -0.707107 0.653281
v -0.146447 -0.923880 0.353553
v -0.707107 0.000000 0.707106
v -0.653282 -0.382683 0.653281
v -0.500000 -0.707107 0.500000
v -0.270598 -0.923880 0.270598
v -0.923880 0.000000 0.382683
v -0.853553 -0.382683 0.353553
v -0.653281 -0.707107 0.270598
v -0.353553 -0.923880 0.146446
v -1.000000 0.000000 -0.000001
v -0.923879 -0.382683 -0.000000
v -0.707107 -0.707107 -0.000000
v -0.382683 -0.923880 -0.000000
v -0.923879 0.000000 -0.382684
v -0.853553 -0.382683 -0.353554
v -0.653281 -0.707107 -0.270598
v -0.353553 -0.923880 -0.146447
v -0.707106 0.000000 -0.707107
v -0.653281 -0.382683 -0.653282
v -0.500000 -0.707107 -0.500000
v -0.270598 -0.923880 -0.270598
v -0.382683 0.000000 -0.923880
v -0.353553 -0.382683 -0.853553
v -0.270598 -0.707107 -0.653281
v -0.146446 -0.923880 -0.353554
v 0.000000 -0.707107 -0.707107
vn -0.0000 1.0000 -0.0000
vn -0.0000 0.5972 -0.8021
vn -0.0000 -0.3744 -0.9273
vn -0.0000 -0.9152 -0.4031
vn 0.3070 0.5972 -0.7411
vn 0.3549 -0.3744 -0.8567
vn 0.2751 -0.6952 -0.6641
vn 0.1543 -0.9152 -0.3724
vn 0.5672 0.5972 -0.5672
vn 0.6557 -0.3744 -0.6557
vn 0.5083 -0.6952 -0.5083
vn 0.2850 -0.9152 -0.2850
vn 0.7411 0.5972 -0.3070
vn 0.8567 -0.3744 -0.3549
vn 0.6641 -0.6952 -0.2751
vn 0.3724 -0.9152 -0.1543
vn 0.8021 0.5972 -0.0000
vn 0.9273 -0.3744 -0.0000
vn 0.7189 -0.6952 -0.0000
vn 0.4031 -0.9152 -0.0000
vn 0.7411 0.5972 0.3070
vn 0.8567 -0.3744 0.3549
vn 0.6641 -0.6952 0.2751
vn 0.3724 -0.9152 0.1543
vn 0.5672 0.5972 0.5672
vn 0.6557 -0.3744 0.6557
vn 0.5083 -0.6952 0.5083
vn 0.2850 -0.9152 0.2850
vn 0.3070 0.5972 0.7411
vn 0.3549 -0.3744 0.8567
vn 0.2751 -0.6952 0.6641
vn 0.1543 -0.9152 0.3724
vn -0.0000 0.5972 0.8021
vn -0.0000 -0.3744 0.9273
vn -0.0000 -0.6952 0.7189
vn -0.0000 -0.9152 0.4031
vn -0.0000 -1.0000 -0.0000
vn -0.3070 0.5972 0.7411
vn -0.3549 -0.3744 0.8567
vn -0.2751 -0.6952 0.6641
vn -0.1543 -0.9152 0.3724
vn -0.5672 0.5972 0.5672
vn -0.6557 -0.3744 0.6557
vn -0.5083 -0.6952 0.5083
vn -0.2850 -0.9152 0.2850
vn -0.7411 0.5972 0.3070
vn -0.8567 -0.3744 0.3549
vn -0.6641 -0.6952 0.2751
vn -0.3724 -0.9152 0.1543
vn -0.8021 0.5972 -0.0000
vn -0.9273 -0.3744 -0.0000
vn -0.7189 -0.6952 -0.0000
vn -0.4031 -0.9152 -0.0000
vn -0.7411 0.5972 -0.3070
vn -0.8567 -0.3744 -0.3549
vn -0.6641 -0.6952 -0.2751
vn -0.3724 -0.9152 -0.1543
vn -0.5672 0.5972 -0.5672
vn -0.6557 -0.3744 -0.6557
vn -0.5083 -0.6952 -0.5083
vn -0.2850 -0.9152 -0.2850
vn -0.3070 0.5972 -0.7411
vn -0.3549 -0.3744 -0.8567
vn -0.2751 -0.6952 -0.6641
vn -0.1543 -0.9152 -0.3724
vn -0.0000 -0.6952 -0.7189
f 66//66 3//3 6//6 7//7
f 2//2 1//1 5//5
f 4//4 66//66 7//7 8//8
f 3//3 2//2 5//5 6//6
f 37//37 4//4 8//8
f 8//8 7//7 11//11 12//12
f 6//6 5//5 9//9 10//10
f 37//37 8//8 12//12
f 7//7 6//6 10//10 11//11
f 5//5 1//1 9//9
f 37//37 12//12 16//16
f 11//11 10//10 14//14 15//15
f 9//9 1//1 13//13
f 12//12 11//11 15//15 16//16
f 10//10 9//9 13//13 14//14
f 37//37 16//16 20//20
f 15//15 14//14 18//18 19//19
f 13//13 1//1 17//17
f 16//16 15//15 19//19 20//20
f 14//14 13//13 17//17 18//18
f 20//20 19//19 23//23 24//24
f 18//18 17//17 21//21 22//22
f 37//37 20//20 24//24
f 19//19 18//18 22//22 23//23
f 17//17 1//1 21//21
f 24//24 23//23 27//27 28//28
f 22//22 21//21 25//25 26//26
f 37//37 24//24 28//28
f 23//23 22//22 26//26 27//27
f 21//21 1//1 25//25
f 37//37 28//28 32//32
f 27//27 26//26 30//30 31//31
f 25//25 1//1 29//29
f 28//28 27//27 31//31 32//32
f 26//26 25//25 29//29 30//30
f 31//31 30//30 34//34 35//35
f 29//29 1//1 33//33
f 32//32 31//31 35//35 36//36
f 30//30 29//29 33//33 34//34
f 37//37 32//32 36//36
f 36//36 35//35 40//40 41//41
f 34//34 33//33 38//38 39//39
f 37//37 36//36 41//41
f 35//35 34//34 39//39 40//40
f 33//33 1//1 38//38
f 39//39 38//38 42//42 43//43
f 37//37 41//41 45//45
f 40//40 39//39 43//43 44//44
f 38//38 1//1 42//42
f 41//41 40//40 44//44 45//45
f 37//37 45//45 49//49
f 44//44 43//43 47//47 48//48
f 42//42 1//1 46//46
f 45//45 44//44 48//48 49//49
f 43//43 42//42 46//46 47//47
f 46//46 1//1 50//50
f 49//49 48//48 52//52 53//53
f 47//47 46//46 50//50 51//51
f 37//37 49//49 53//53
f 48//48 47//47 51//51 52//52
f 53//53 52//52 56//56 57//57
f 51//51 50//50 54//54 55//55
f 37//37 53//53 57//57
f 52//52 51//51 55//55 56//56
f 50//50 1//1 54//54
f 37//37 57//57 61//61
f 56//56 55//55 59//59 60//60
f 54//54 1//1 58//58
f 57//57 56//56 60//60 61//61
f 55//55 54//54 58//58 59//59
f 37//37 61//61 65//65
f 60//60 59//59 63//63 64//64
f 58//58 1//1 62//62
f 61//61 60//60 64//64 65//65
f 59//59 58//58 62//62 63//63
f 65//65 64//64 66//66 4//4
f 63//63 62//62 2//2 3//3
f 37//37 65//65 4//4
f 64//64 63//63 3//3 66//66
f 62//62 1//1 2//2
