<svg width="32" height="32" viewBox="0 0 24 24" xmlns="http://www.w3.org/2000/svg">
  <path fill="#d9924c" d="M10.77 2.07a1.32 1.32 0 0 0-.182.007c-1.63.189-3.038.624-4.23 1.308-1.19.685-2.14 1.515-2.847 2.49a7.724 7.724 0 0 0-1.375 3.151 6.56 6.56 0 0 0 .21 3.292 7.538 7.538 0 0 0 1.77 2.916 9.77 9.77 0 0 0 2.886 2.058c1.102.521 2.308.86 3.62 1.019 1.31.157 2.635.089 3.97-.204 1.353-.297 2.555-.787 3.609-1.47 1.053-.682 1.895-1.485 2.525-2.408a7.436 7.436 0 0 0 1.214-3.01c.18-1.085.076-2.17-.315-3.258a.753.753 0 0 0-.332-.424 1.337 1.337 0 0 0-.614-.173c-.736-.037-1.352-.19-1.847-.463a2.316 2.316 0 0 1-1.062-1.23c-.115-.299-.285-.502-.51-.609-.224-.106-.508-.128-.85-.067a4.635 4.635 0 0 1-2.928-.365c-.929-.439-1.547-1.076-1.856-1.913a1.047 1.047 0 0 0-.4-.515.888.888 0 0 0-.456-.132z"/>
  <path fill="#b3783e" d="M9.67 6.519a1.805 1.805 0 0 0-.408.043c-.404.088-.708.278-.912.572a1.014 1.014 0 0 0-.148.933c.105.328.337.578.697.748.36.17.74.21 1.14.12.402-.088.706-.278.912-.57a.997.997 0 0 0 .148-.934c-.109-.33-.341-.579-.697-.747a1.698 1.698 0 0 0-.733-.165zm-.638 4.377a1.773 1.773 0 0 0-.408.045c-.405.087-.709.278-.913.571a1.014 1.014 0 0 0-.148.933c.105.329.339.577.699.747.36.17.739.21 1.138.12.402-.088.707-.277.914-.57a.997.997 0 0 0 .146-.932c-.108-.33-.34-.58-.695-.748a1.703 1.703 0 0 0-.733-.166zm6.662.218a1.334 1.334 0 0 0-.274.03c-.273.06-.478.188-.613.38a.671.671 0 0 0-.094.624.83.83 0 0 0 .463.502c.236.112.49.137.761.077.274-.06.479-.187.614-.38a.666.666 0 0 0 .094-.624.835.835 0 0 0-.463-.5 1.113 1.113 0 0 0-.488-.11z"/>
  <path fill="#b3783e" d="m21.955 9.271-.015.107a7.442 7.442 0 0 1-1.214 3.012c-.63.922-1.472 1.724-2.525 2.406-1.054.683-2.256 1.174-3.608 1.471-1.336.293-2.66.36-3.971.202-1.312-.157-2.518-.496-3.62-1.016a9.77 9.77 0 0 1-2.886-2.058 7.538 7.538 0 0 1-1.77-2.917 6.614 6.614 0 0 1-.262-1.124 6.609 6.609 0 0 0 0 1.845 6.598 6.598 0 0 0 0 1.838v.002a6.53 6.53 0 0 0 .261 2.963 7.538 7.538 0 0 0 1.771 2.916 9.77 9.77 0 0 0 2.886 2.059c1.102.52 2.308.859 3.62 1.016 1.31.158 2.635.091 3.97-.202 1.353-.297 2.555-.788 3.609-1.47 1.053-.683 1.895-1.485 2.525-2.407a7.436 7.436 0 0 0 1.214-3.01c.108-.65.112-1.3.015-1.95h-.001c.09-.614.092-1.228.001-1.842l-.012.09a6.244 6.244 0 0 0 .012-1.931z"/>
  <path fill="#4d2e1f" d="m21.955 11.112-.015.107a7.442 7.442 0 0 1-1.214 3.012c-.63.922-1.472 1.724-2.526 2.406-1.053.683-2.255 1.174-3.607 1.471-1.337.293-2.66.36-3.972.202-1.31-.157-2.517-.496-3.62-1.016a9.77 9.77 0 0 1-2.885-2.058 7.538 7.538 0 0 1-1.771-2.917 6.614 6.614 0 0 1-.26-1.124 6.531 6.531 0 0 0 .26 2.965 7.538 7.538 0 0 0 1.771 2.917 9.77 9.77 0 0 0 2.886 2.058c1.102.52 2.308.859 3.62 1.017 1.31.157 2.634.09 3.97-.203 1.353-.297 2.555-.788 3.608-1.47 1.054-.683 1.896-1.485 2.526-2.407a7.436 7.436 0 0 0 1.214-3.01c.108-.65.111-1.3.015-1.95z"/>
</svg>
